<svg xmlns="http://www.w3.org/2000/svg" version="1.1" xmlns:xlink="http://www.w3.org/1999/xlink" width="512" height="512" x="0" y="0" viewBox="0 0 512 512" style="enable-background:new 0 0 512 512" xml:space="preserve" class=""><g><circle cx="256" cy="256" r="256" fill="#ffd6fd" opacity="1" data-original="#ffce00"></circle><path fill="#eab5e8" d="M510.625 282.694 394.829 166.899 124.814 430.227l75.757 75.757C218.419 509.923 236.967 512 256 512c132.371 0 241.276-100.466 254.625-229.306z" opacity="1" data-original="#ffa300" class=""></path><path fill="#6e7bd9" d="M301.474 73.544h-157.23c-14.953 0-27.074 12.122-27.074 27.074v310.764c0 14.953 12.121 27.074 27.074 27.074h223.51c14.953 0 27.074-12.122 27.074-27.074V166.899l-51.838-39.351z" opacity="1" data-original="#a260e5" class=""></path><path fill="#5965c0" d="M301.474 73.544H256.12v364.913h111.635c14.953 0 27.074-12.122 27.074-27.074V166.899l-52.707-38.482z" opacity="1" data-original="#7a3eb5" class=""></path><path fill="#6e7bd9" d="M301.474 139.824c0 14.953 12.121 27.074 27.074 27.074h66.281l-93.355-93.355z" opacity="1" data-original="#a260e5" class=""></path><path fill="#ffffff" d="M171.958 303.683h26.704v30h-26.704z" opacity="1" data-original="#ffffff" class=""></path><g fill="#fff"><path d="M213.795 303.683h42.326v30h-42.326zM256.121 303.683h83.921v30h-83.921z" fill="#ffffff" opacity="1" data-original="#ffffff" class=""></path></g><path fill="#ffffff" d="M171.958 360.366h26.704v30h-26.704z" opacity="1" data-original="#ffffff" class=""></path><g fill="#fff"><path d="M213.795 360.366h42.326v30h-42.326zM256.121 360.366h83.921v30h-83.921z" fill="#ffffff" opacity="1" data-original="#ffffff" class=""></path></g><path fill="#ffffff" d="M171.958 247h26.704v30h-26.704zM213.795 247h126.247v30H213.795z" opacity="1" data-original="#ffffff" class=""></path><path fill="#e9edf5" d="M256.121 303.683h83.921v30h-83.921zM256.121 360.366h83.921v30h-83.921zM256.121 247h83.921v30h-83.921z" opacity="1" data-original="#e9edf5"></path></g></svg>